<mxfile host="app.diagrams.net" modified="2023-09-07T08:24:02.706Z" agent="Mozilla/5.0 (Windows NT 10.0; Win64; x64) AppleWebKit/537.36 (KHTML, like Gecko) Chrome/116.0.0.0 Safari/537.36" etag="c9tRnhgLBbS0XbHTprpc" version="21.7.2" type="github">
  <diagram name="Page-1" id="822b0af5-4adb-64df-f703-e8dfc1f81529">
    <mxGraphModel dx="1600" dy="869" grid="1" gridSize="10" guides="1" tooltips="1" connect="1" arrows="1" fold="1" page="1" pageScale="1" pageWidth="1100" pageHeight="850" background="none" math="0" shadow="0">
      <root>
        <mxCell id="0" />
        <mxCell id="1" parent="0" />
        <mxCell id="ULzSa3rQIOnoUFM7LlT5-6" style="edgeStyle=orthogonalEdgeStyle;rounded=0;orthogonalLoop=1;jettySize=auto;html=1;entryX=0.51;entryY=-0.09;entryDx=0;entryDy=0;entryPerimeter=0;" edge="1" parent="1" source="ULzSa3rQIOnoUFM7LlT5-26" target="t5K60pOXcwjWEz2N4Qyh-7">
          <mxGeometry relative="1" as="geometry">
            <Array as="points">
              <mxPoint x="309" y="690" />
            </Array>
          </mxGeometry>
        </mxCell>
        <mxCell id="ULzSa3rQIOnoUFM7LlT5-27" style="edgeStyle=orthogonalEdgeStyle;rounded=0;orthogonalLoop=1;jettySize=auto;html=1;" edge="1" parent="1" source="t5K60pOXcwjWEz2N4Qyh-1" target="ULzSa3rQIOnoUFM7LlT5-26">
          <mxGeometry relative="1" as="geometry" />
        </mxCell>
        <mxCell id="t5K60pOXcwjWEz2N4Qyh-1" value="" style="image;points=[];aspect=fixed;html=1;align=center;shadow=0;dashed=0;image=img/lib/allied_telesis/computer_and_terminals/Personal_Computer.svg;" parent="1" vertex="1">
          <mxGeometry x="685" y="336.32" width="120" height="162.63" as="geometry" />
        </mxCell>
        <mxCell id="t5K60pOXcwjWEz2N4Qyh-2" value="" style="image;html=1;image=img/lib/clip_art/computers/Server_Rack_128x128.png" parent="1" vertex="1">
          <mxGeometry x="150" y="995" width="140" height="160" as="geometry" />
        </mxCell>
        <mxCell id="t5K60pOXcwjWEz2N4Qyh-4" value="ccccccccccccccc" style="image;html=1;image=img/lib/clip_art/computers/Server_Rack_128x128.png" parent="1" vertex="1">
          <mxGeometry x="150" y="1240" width="140" height="160" as="geometry" />
        </mxCell>
        <mxCell id="t5K60pOXcwjWEz2N4Qyh-5" value="" style="rounded=1;whiteSpace=wrap;html=1;fillColor=none;strokeColor=#000000;strokeWidth=2;" parent="1" vertex="1">
          <mxGeometry x="90" y="890" width="485" height="600" as="geometry" />
        </mxCell>
        <mxCell id="t5K60pOXcwjWEz2N4Qyh-6" value="" style="ellipse;whiteSpace=wrap;html=1;" parent="1" vertex="1">
          <mxGeometry x="1020" y="140" width="200" height="130" as="geometry" />
        </mxCell>
        <mxCell id="t5K60pOXcwjWEz2N4Qyh-7" value="&lt;font style=&quot;font-size: 48px;&quot;&gt;Server&lt;/font&gt;" style="text;html=1;align=center;verticalAlign=middle;resizable=0;points=[];autosize=1;strokeColor=none;fillColor=none;" parent="1" vertex="1">
          <mxGeometry x="227.5" y="810" width="160" height="70" as="geometry" />
        </mxCell>
        <mxCell id="t5K60pOXcwjWEz2N4Qyh-9" value="&lt;font style=&quot;&quot;&gt;&lt;font style=&quot;font-size: 36px;&quot;&gt;Web&lt;br&gt;server&lt;/font&gt;&lt;br&gt;&lt;/font&gt;" style="text;html=1;align=center;verticalAlign=middle;resizable=0;points=[];autosize=1;strokeColor=none;fillColor=none;" parent="1" vertex="1">
          <mxGeometry x="160" y="895" width="120" height="100" as="geometry" />
        </mxCell>
        <mxCell id="t5K60pOXcwjWEz2N4Qyh-10" value="&lt;font style=&quot;&quot;&gt;&lt;font style=&quot;font-size: 36px;&quot;&gt;Application&lt;br&gt;server&lt;/font&gt;&lt;br&gt;&lt;/font&gt;" style="text;html=1;align=center;verticalAlign=middle;resizable=0;points=[];autosize=1;strokeColor=none;fillColor=none;" parent="1" vertex="1">
          <mxGeometry x="120" y="1400" width="200" height="100" as="geometry" />
        </mxCell>
        <mxCell id="t5K60pOXcwjWEz2N4Qyh-15" value="" style="endArrow=classic;startArrow=classic;html=1;rounded=0;exitX=0.268;exitY=0.583;exitDx=0;exitDy=0;exitPerimeter=0;" parent="1" target="t5K60pOXcwjWEz2N4Qyh-2" edge="1" source="t5K60pOXcwjWEz2N4Qyh-5">
          <mxGeometry width="50" height="50" relative="1" as="geometry">
            <mxPoint x="550" y="470" as="sourcePoint" />
            <mxPoint x="600" y="420" as="targetPoint" />
          </mxGeometry>
        </mxCell>
        <mxCell id="t5K60pOXcwjWEz2N4Qyh-16" value="" style="endArrow=classic;startArrow=classic;html=1;rounded=0;entryX=0.1;entryY=0.5;entryDx=0;entryDy=0;entryPerimeter=0;" parent="1" source="t5K60pOXcwjWEz2N4Qyh-1" target="t5K60pOXcwjWEz2N4Qyh-6" edge="1">
          <mxGeometry width="50" height="50" relative="1" as="geometry">
            <mxPoint x="109.47000000000003" y="347.5" as="sourcePoint" />
            <mxPoint x="109.47000000000003" y="262.5" as="targetPoint" />
          </mxGeometry>
        </mxCell>
        <mxCell id="t5K60pOXcwjWEz2N4Qyh-17" value="&lt;font style=&quot;font-size: 48px;&quot;&gt;DNS&lt;/font&gt;" style="text;html=1;align=center;verticalAlign=middle;resizable=0;points=[];autosize=1;strokeColor=none;fillColor=none;" parent="1" vertex="1">
          <mxGeometry x="1060" y="170" width="120" height="70" as="geometry" />
        </mxCell>
        <mxCell id="t5K60pOXcwjWEz2N4Qyh-18" value="c" style="image;html=1;image=img/lib/clip_art/computers/Database_128x128.png" parent="1" vertex="1">
          <mxGeometry x="390" y="1233" width="110" height="174" as="geometry" />
        </mxCell>
        <mxCell id="t5K60pOXcwjWEz2N4Qyh-19" value="&lt;font style=&quot;&quot;&gt;&lt;span style=&quot;font-size: 36px;&quot;&gt;MYSQL&lt;br&gt;DB&lt;/span&gt;&lt;br&gt;&lt;/font&gt;" style="text;html=1;align=center;verticalAlign=middle;resizable=0;points=[];autosize=1;strokeColor=none;fillColor=none;" parent="1" vertex="1">
          <mxGeometry x="370" y="1400" width="150" height="100" as="geometry" />
        </mxCell>
        <mxCell id="t5K60pOXcwjWEz2N4Qyh-21" value="" style="endArrow=classic;startArrow=classic;html=1;rounded=0;" parent="1" edge="1">
          <mxGeometry width="50" height="50" relative="1" as="geometry">
            <mxPoint x="270" y="1319.0900000000001" as="sourcePoint" />
            <mxPoint x="390" y="1319.0900000000001" as="targetPoint" />
          </mxGeometry>
        </mxCell>
        <mxCell id="ULzSa3rQIOnoUFM7LlT5-3" value="" style="image;html=1;image=img/lib/clip_art/general/Full_Folder_128x128.png" vertex="1" parent="1">
          <mxGeometry x="390" y="1007.5" width="110" height="135" as="geometry" />
        </mxCell>
        <mxCell id="ULzSa3rQIOnoUFM7LlT5-4" value="" style="endArrow=classic;startArrow=classic;html=1;rounded=0;" edge="1" parent="1">
          <mxGeometry width="50" height="50" relative="1" as="geometry">
            <mxPoint x="280" y="1074.0900000000001" as="sourcePoint" />
            <mxPoint x="400" y="1074.0900000000001" as="targetPoint" />
          </mxGeometry>
        </mxCell>
        <mxCell id="ULzSa3rQIOnoUFM7LlT5-5" value="&lt;font style=&quot;&quot;&gt;&lt;span style=&quot;font-size: 36px;&quot;&gt;Code&lt;br&gt;Base&lt;/span&gt;&lt;br&gt;&lt;/font&gt;" style="text;html=1;align=center;verticalAlign=middle;resizable=0;points=[];autosize=1;strokeColor=none;fillColor=none;" vertex="1" parent="1">
          <mxGeometry x="390" y="907.5" width="110" height="100" as="geometry" />
        </mxCell>
        <mxCell id="ULzSa3rQIOnoUFM7LlT5-8" style="edgeStyle=orthogonalEdgeStyle;rounded=0;orthogonalLoop=1;jettySize=auto;html=1;entryX=0.51;entryY=-0.09;entryDx=0;entryDy=0;entryPerimeter=0;" edge="1" parent="1" source="ULzSa3rQIOnoUFM7LlT5-26" target="ULzSa3rQIOnoUFM7LlT5-14">
          <mxGeometry relative="1" as="geometry">
            <mxPoint x="750" y="630" as="sourcePoint" />
          </mxGeometry>
        </mxCell>
        <mxCell id="ULzSa3rQIOnoUFM7LlT5-10" value="" style="image;html=1;image=img/lib/clip_art/computers/Server_Rack_128x128.png" vertex="1" parent="1">
          <mxGeometry x="930" y="995" width="140" height="160" as="geometry" />
        </mxCell>
        <mxCell id="ULzSa3rQIOnoUFM7LlT5-11" value="ccccccccccccccc" style="image;html=1;image=img/lib/clip_art/computers/Server_Rack_128x128.png" vertex="1" parent="1">
          <mxGeometry x="930" y="1240" width="140" height="160" as="geometry" />
        </mxCell>
        <mxCell id="ULzSa3rQIOnoUFM7LlT5-12" value="" style="rounded=1;whiteSpace=wrap;html=1;fillColor=none;strokeColor=#000000;strokeWidth=2;" vertex="1" parent="1">
          <mxGeometry x="870" y="890" width="485" height="600" as="geometry" />
        </mxCell>
        <mxCell id="ULzSa3rQIOnoUFM7LlT5-14" value="&lt;font style=&quot;font-size: 48px;&quot;&gt;Server&lt;/font&gt;" style="text;html=1;align=center;verticalAlign=middle;resizable=0;points=[];autosize=1;strokeColor=none;fillColor=none;" vertex="1" parent="1">
          <mxGeometry x="1007.5" y="810" width="160" height="70" as="geometry" />
        </mxCell>
        <mxCell id="ULzSa3rQIOnoUFM7LlT5-15" value="&lt;font style=&quot;&quot;&gt;&lt;font style=&quot;font-size: 36px;&quot;&gt;Web&lt;br&gt;server&lt;/font&gt;&lt;br&gt;&lt;/font&gt;" style="text;html=1;align=center;verticalAlign=middle;resizable=0;points=[];autosize=1;strokeColor=none;fillColor=none;" vertex="1" parent="1">
          <mxGeometry x="940" y="895" width="120" height="100" as="geometry" />
        </mxCell>
        <mxCell id="ULzSa3rQIOnoUFM7LlT5-16" value="&lt;font style=&quot;&quot;&gt;&lt;font style=&quot;font-size: 36px;&quot;&gt;Application&lt;br&gt;server&lt;/font&gt;&lt;br&gt;&lt;/font&gt;" style="text;html=1;align=center;verticalAlign=middle;resizable=0;points=[];autosize=1;strokeColor=none;fillColor=none;" vertex="1" parent="1">
          <mxGeometry x="900" y="1400" width="200" height="100" as="geometry" />
        </mxCell>
        <mxCell id="ULzSa3rQIOnoUFM7LlT5-17" value="" style="endArrow=classic;startArrow=classic;html=1;rounded=0;exitX=0.268;exitY=0.583;exitDx=0;exitDy=0;exitPerimeter=0;" edge="1" parent="1" source="ULzSa3rQIOnoUFM7LlT5-12" target="ULzSa3rQIOnoUFM7LlT5-10">
          <mxGeometry width="50" height="50" relative="1" as="geometry">
            <mxPoint x="1330" y="470" as="sourcePoint" />
            <mxPoint x="1380" y="420" as="targetPoint" />
          </mxGeometry>
        </mxCell>
        <mxCell id="ULzSa3rQIOnoUFM7LlT5-20" value="c" style="image;html=1;image=img/lib/clip_art/computers/Database_128x128.png" vertex="1" parent="1">
          <mxGeometry x="1170" y="1233" width="110" height="174" as="geometry" />
        </mxCell>
        <mxCell id="ULzSa3rQIOnoUFM7LlT5-21" value="&lt;font style=&quot;&quot;&gt;&lt;span style=&quot;font-size: 36px;&quot;&gt;MYSQL&lt;br&gt;DB&lt;/span&gt;&lt;br&gt;&lt;/font&gt;" style="text;html=1;align=center;verticalAlign=middle;resizable=0;points=[];autosize=1;strokeColor=none;fillColor=none;" vertex="1" parent="1">
          <mxGeometry x="1150" y="1400" width="150" height="100" as="geometry" />
        </mxCell>
        <mxCell id="ULzSa3rQIOnoUFM7LlT5-22" value="" style="endArrow=classic;startArrow=classic;html=1;rounded=0;" edge="1" parent="1">
          <mxGeometry width="50" height="50" relative="1" as="geometry">
            <mxPoint x="1050" y="1319.0900000000001" as="sourcePoint" />
            <mxPoint x="1170" y="1319.0900000000001" as="targetPoint" />
          </mxGeometry>
        </mxCell>
        <mxCell id="ULzSa3rQIOnoUFM7LlT5-23" value="" style="image;html=1;image=img/lib/clip_art/general/Full_Folder_128x128.png" vertex="1" parent="1">
          <mxGeometry x="1170" y="1007.5" width="110" height="135" as="geometry" />
        </mxCell>
        <mxCell id="ULzSa3rQIOnoUFM7LlT5-24" value="" style="endArrow=classic;startArrow=classic;html=1;rounded=0;" edge="1" parent="1">
          <mxGeometry width="50" height="50" relative="1" as="geometry">
            <mxPoint x="1060" y="1074.0900000000001" as="sourcePoint" />
            <mxPoint x="1180" y="1074.0900000000001" as="targetPoint" />
          </mxGeometry>
        </mxCell>
        <mxCell id="ULzSa3rQIOnoUFM7LlT5-25" value="&lt;font style=&quot;&quot;&gt;&lt;span style=&quot;font-size: 36px;&quot;&gt;Code&lt;br&gt;Base&lt;/span&gt;&lt;br&gt;&lt;/font&gt;" style="text;html=1;align=center;verticalAlign=middle;resizable=0;points=[];autosize=1;strokeColor=none;fillColor=none;" vertex="1" parent="1">
          <mxGeometry x="1170" y="907.5" width="110" height="100" as="geometry" />
        </mxCell>
        <mxCell id="ULzSa3rQIOnoUFM7LlT5-26" value="&lt;font style=&quot;font-size: 36px;&quot;&gt;Load &lt;/font&gt;&lt;font style=&quot;font-size: 36px;&quot;&gt;Balancer&lt;/font&gt;" style="sketch=0;outlineConnect=0;gradientColor=none;html=1;whiteSpace=wrap;fontSize=12;fontStyle=0;shape=mxgraph.aws4.groupCenter;grIcon=mxgraph.aws4.group_elastic_load_balancing;grStroke=1;strokeColor=#666666;fillColor=none;verticalAlign=top;align=center;fontColor=#007DBC;dashed=0;spacingTop=25;" vertex="1" parent="1">
          <mxGeometry x="610" y="630" width="270" height="130" as="geometry" />
        </mxCell>
      </root>
    </mxGraphModel>
  </diagram>
</mxfile>
